<svg xmlns="http://www.w3.org/2000/svg" xmlns:xlink="http://www.w3.org/1999/xlink" viewBox="0,0,256,256" width="24px" height="24px"><g fill="#ffffff" fill-rule="evenodd" stroke="none" stroke-width="1" stroke-linecap="butt" stroke-linejoin="miter" stroke-miterlimit="10" stroke-dasharray="" stroke-dashoffset="0" font-family="none" font-weight="none" font-size="none" text-anchor="none" style="mix-blend-mode: normal"><g transform="scale(10.66667,10.66667)"><path d="M15.62,8.422c-0.145,0.213 -0.381,0.328 -0.621,0.328c-0.145,0 -0.292,-0.042 -0.421,-0.13l-2.457,-1.67c-0.067,-0.044 -0.174,-0.043 -0.256,0.01l-2.443,1.66c-0.342,0.234 -0.809,0.145 -1.042,-0.198c-0.233,-0.343 -0.144,-0.809 0.198,-1.042l2.457,-1.67c0.592,-0.385 1.338,-0.384 1.917,-0.009l2.47,1.679c0.342,0.233 0.431,0.699 0.198,1.042M15.62,12.422c-0.145,0.213 -0.381,0.328 -0.621,0.328c-0.145,0 -0.292,-0.042 -0.421,-0.13l-2.457,-1.67c-0.067,-0.043 -0.174,-0.044 -0.256,0.01l-2.443,1.66c-0.342,0.233 -0.809,0.145 -1.042,-0.198c-0.233,-0.343 -0.144,-0.809 0.198,-1.042l2.457,-1.67c0.592,-0.385 1.338,-0.384 1.917,-0.009l2.47,1.679c0.342,0.233 0.431,0.699 0.198,1.042M17.976,4.953l-5,-3.402c-0.593,-0.403 -1.36,-0.403 -1.953,0l-5,3.402c-0.484,0.33 -0.773,0.879 -0.773,1.469v11.155c0,0.591 0.289,1.14 0.773,1.47l4.999,3.4c0.297,0.204 0.638,0.305 0.978,0.305c0.34,0 0.68,-0.101 0.976,-0.304l5,-3.401c0.485,-0.33 0.774,-0.879 0.774,-1.47v-11.155c0,-0.59 -0.289,-1.139 -0.774,-1.469"></path></g></g></svg>