<svg xmlns="http://www.w3.org/2000/svg" xmlns:xlink="http://www.w3.org/1999/xlink" viewBox="0,0,256,256" width="24px" height="24px"><g fill="#ffffff" fill-rule="nonzero" stroke="none" stroke-width="1" stroke-linecap="butt" stroke-linejoin="miter" stroke-miterlimit="10" stroke-dasharray="" stroke-dashoffset="0" font-family="none" font-weight="none" font-size="none" text-anchor="none" style="mix-blend-mode: normal"><g transform="scale(10.66667,10.66667)"><path d="M11,2c-1.10547,0 -2,0.89453 -2,2h-1v2h7c0.28516,0 0.5,0.21484 0.5,0.5c0,0.28516 -0.21484,0.5 -0.5,0.5h-7v1.4375c-1.45703,0.75391 -3,2.13281 -3,4.5625c0,3.82422 2.92188,8.41406 3,8.5625c0.15625,0.30078 0.375,0.4375 0.6875,0.4375h6.625c0.3125,0 0.53125,-0.13672 0.6875,-0.4375c0.07813,-0.14844 3,-4.66406 3,-8.5625c0,-2.23828 -1.30859,-3.625 -2.65625,-4.40625c0.69531,-0.44531 1.15625,-1.21484 1.15625,-2.09375c0,-1.36719 -1.13281,-2.5 -2.5,-2.5c0,-1.10547 -0.89453,-2 -2,-2z"></path></g></g></svg>