<svg xmlns="http://www.w3.org/2000/svg" xmlns:xlink="http://www.w3.org/1999/xlink" viewBox="0,0,256,256" width="24px" height="24px"><g fill="#ffffff" fill-rule="nonzero" stroke="none" stroke-width="1" stroke-linecap="butt" stroke-linejoin="miter" stroke-miterlimit="10" stroke-dasharray="" stroke-dashoffset="0" font-family="none" font-weight="none" font-size="none" text-anchor="none" style="mix-blend-mode: normal"><g transform="scale(10.66667,10.66667)"><path d="M9.52148,2c-3.00062,0 -5.46764,2.33851 -5.68555,5.28516c-1.50692,1.02917 -2.5,2.7594 -2.5,4.71484c0,1.95544 0.99308,3.68567 2.5,4.71484c0.2179,2.94664 2.68493,5.28516 5.68555,5.28516c0.88471,0 1.71102,-0.2237 2.45898,-0.58594c0.75611,0.37101 1.60172,0.58594 2.49805,0.58594c3.00062,0 5.46764,-2.33851 5.68555,-5.28516c1.50692,-1.02917 2.5,-2.7594 2.5,-4.71484c0,-1.95544 -0.99308,-3.68567 -2.5,-4.71484c-0.2179,-2.94664 -2.68493,-5.28516 -5.68555,-5.28516c-0.8886,0 -1.72733,0.21113 -2.47852,0.57617c-0.75118,-0.36504 -1.58991,-0.57617 -2.47852,-0.57617zM9.52148,3.5c0.33984,0 0.66445,0.05174 0.98047,0.12695c-0.81373,0.79329 -1.39063,1.82501 -1.61914,2.98047c-0.57805,-0.2006 -1.19483,-0.31445 -1.83984,-0.31445c-0.53227,0 -1.04574,0.07937 -1.53516,0.2168c0.51565,-1.73996 2.10102,-3.00977 4.01367,-3.00977zM14.47852,3.5c1.91265,0 3.49803,1.26981 4.01367,3.00977c-0.48942,-0.13743 -1.00289,-0.2168 -1.53516,-0.2168c-0.64442,0 -1.26164,0.11392 -1.83984,0.3125c-0.22876,-1.1547 -0.80585,-2.18566 -1.61914,-2.97852c0.31602,-0.07522 0.64063,-0.12695 0.98047,-0.12695zM12,4.31836c0.73371,0.5365 1.28301,1.30284 1.54883,2.19531c-0.49348,-0.13991 -1.0116,-0.2207 -1.54883,-0.2207c-0.53935,0 -1.0566,0.08575 -1.55078,0.22852c0.2649,-0.8958 0.81495,-1.66508 1.55078,-2.20312zM7.04297,7.79297c0.33984,0 0.66445,0.05174 0.98047,0.12695c-0.74359,0.7249 -1.28309,1.65152 -1.54492,2.6875c-0.62251,-0.65325 -1.01989,-1.50953 -1.11914,-2.46094c0.51574,-0.22446 1.08295,-0.35352 1.68359,-0.35352zM12,7.79297c0.34267,0 0.66986,0.05247 0.98828,0.12891c-0.39217,0.38275 -0.71839,0.82726 -0.98828,1.30859c-0.2694,-0.47966 -0.58873,-0.92865 -0.98047,-1.31055c0.31602,-0.07522 0.64063,-0.12695 0.98047,-0.12695zM16.95703,7.79297c0.60064,0 1.16786,0.12906 1.68359,0.35352c-0.09899,0.94895 -0.49542,1.80248 -1.11523,2.45508c-0.26253,-1.03367 -0.80374,-1.95608 -1.54492,-2.67969c0.31417,-0.07526 0.63772,-0.12891 0.97656,-0.12891zM15.04688,9.10352c0.45334,0.47697 0.78273,1.06446 0.97266,1.71484c-0.49263,-0.13983 -1.00426,-0.23242 -1.54101,-0.23242c-0.01528,0 -0.02967,0.00377 -0.04492,0.00391c0.2717,-0.45875 0.47843,-0.95754 0.61328,-1.48633zM3.99609,9.10547c0.29085,1.14515 0.92635,2.15137 1.79297,2.9043c-0.86008,0.75228 -1.50323,1.74397 -1.79297,2.88477c-0.71557,-0.75342 -1.16016,-1.76752 -1.16016,-2.89453c0,-1.12702 0.44458,-2.14111 1.16016,-2.89453zM20.00391,9.10547c0.71557,0.75342 1.16016,1.76752 1.16016,2.89453c0,1.12702 -0.44458,2.14111 -1.16016,2.89453c-0.28941,-1.1395 -0.93256,-2.13251 -1.79102,-2.88476c0.86607,-0.75283 1.50029,-1.75963 1.79102,-2.9043zM8.95703,9.11719c0.13497,0.52368 0.34005,1.0179 0.60938,1.47266c-0.01525,-0.00013 -0.02964,-0.00391 -0.04492,-0.00391c-0.53227,0 -1.04574,0.07937 -1.53516,0.2168c0.1902,-0.64181 0.52649,-1.21369 0.9707,-1.68555zM16.01367,13.19727c-0.19271,0.64167 -0.5177,1.22442 -0.9668,1.69726c-0.1351,-0.53194 -0.36279,-1.02299 -0.63477,-1.48437c0.02242,0.00027 0.04393,0.00391 0.06641,0.00391c0.53227,0 1.04574,-0.07937 1.53516,-0.2168zM7.99805,13.20117c0.48588,0.13529 0.99547,0.21289 1.52344,0.21289c0.01519,0 0.02976,-0.00183 0.04492,-0.00195c-0.26677,0.4522 -0.47898,0.94073 -0.61328,1.46094c-0.44018,-0.46871 -0.76797,-1.03631 -0.95508,-1.67187zM6.47461,13.39844c0.26289,1.03507 0.80612,1.95759 1.54883,2.68164c-0.31602,0.07522 -0.64063,0.12695 -0.98047,0.12695c-0.60064,0 -1.16786,-0.12906 -1.68359,-0.35351c0.09899,-0.94895 0.49542,-1.80248 1.11523,-2.45508zM17.52344,13.42578c0.60578,0.6518 1.01908,1.48729 1.11719,2.42774c-0.51574,0.22446 -1.08295,0.35351 -1.68359,0.35351c-0.34223,0 -0.66918,-0.05237 -0.98633,-0.12891c0.73762,-0.718 1.28687,-1.6272 1.55273,-2.65234zM12.00781,14.78711c0.26909,0.47647 0.60122,0.90772 0.99024,1.28711c-0.32096,0.07953 -0.65134,0.13281 -0.99805,0.13281c-0.33984,0 -0.66445,-0.05174 -0.98047,-0.12695c0.38936,-0.37958 0.72022,-0.81667 0.98828,-1.29297zM8.88086,17.39258c0.22713,1.15557 0.80473,2.18532 1.61719,2.97852c-0.31417,0.07526 -0.63772,0.12891 -0.97656,0.12891c-1.91265,0 -3.49803,-1.26981 -4.01367,-3.00977c0.48942,0.13743 1.00289,0.2168 1.53516,0.2168c0.64436,0 1.26034,-0.11423 1.83789,-0.31445zM15.11133,17.39453c0.57971,0.19999 1.19904,0.3125 1.8457,0.3125c0.53227,0 1.04574,-0.07937 1.53516,-0.2168c-0.51565,1.73996 -2.10102,3.00977 -4.01367,3.00977c-0.34267,0 -0.66986,-0.05247 -0.98828,-0.12891c0.81237,-0.79287 1.39316,-1.82093 1.62109,-2.97656zM10.46289,17.48242c0.4901,0.14026 1.00274,0.22461 1.53711,0.22461c0.53227,0 1.04574,-0.07937 1.53516,-0.2168c-0.26389,0.89047 -0.81043,1.6544 -1.53516,2.19141c-0.73348,-0.53633 -1.27371,-1.3041 -1.53711,-2.19922z"></path></g></g></svg>