<svg xmlns="http://www.w3.org/2000/svg" xmlns:xlink="http://www.w3.org/1999/xlink" viewBox="0,0,256,256" width="24px" height="24px"><g fill="#ffffff" fill-rule="nonzero" stroke="none" stroke-width="1" stroke-linecap="butt" stroke-linejoin="miter" stroke-miterlimit="10" stroke-dasharray="" stroke-dashoffset="0" font-family="none" font-weight="none" font-size="none" text-anchor="none" style="mix-blend-mode: normal"><g transform="scale(10.66667,10.66667)"><path d="M10,2l-1,1h-6v2h1.10938l1.79297,15.23438c0.11725,0.99958 0.97966,1.76563 1.98633,1.76563h8.22266c1.00667,0 1.86908,-0.76605 1.98633,-1.76562l1.79297,-15.23437h1.10938v-2h-2h-4l-1,-1zM6.12305,5h0.87695h10.87695l-1.76562,15h-8.22266zM9,7v10c0,0.552 0.448,1 1,1h1v-11zM13,7v11h1c0.552,0 1,-0.448 1,-1v-10z"></path></g></g></svg>