<svg xmlns="http://www.w3.org/2000/svg" xmlns:xlink="http://www.w3.org/1999/xlink" viewBox="0,0,256,256" width="24px" height="24px"><g fill="#ffffff" fill-rule="nonzero" stroke="none" stroke-width="1" stroke-linecap="butt" stroke-linejoin="miter" stroke-miterlimit="10" stroke-dasharray="" stroke-dashoffset="0" font-family="none" font-weight="none" font-size="none" text-anchor="none" style="mix-blend-mode: normal"><g transform="scale(10.66667,10.66667)"><path d="M12,4c-8,0 -11,8 -11,8c0,0 2.82748,7.48108 10.27148,7.95508c-0.174,-0.619 -0.27148,-1.27308 -0.27148,-1.95508c0,-0.373 0.03584,-0.7358 0.08984,-1.0918c-2.326,-0.429 -4.08984,-2.4582 -4.08984,-4.9082c0,-2.762 2.238,-5 5,-5c2.45,0 4.4792,1.76384 4.9082,4.08984c0.356,-0.054 0.7188,-0.08984 1.0918,-0.08984c1.81,0 3.43306,0.65905 4.66406,1.74805c0.227,-0.463 0.33594,-0.74805 0.33594,-0.74805c0,0 -3,-8 -11,-8zM12,9c-1.656,0 -3,1.344 -3,3c0,1.545 1.17378,2.8038 2.67578,2.9668c0.682,-1.45 1.84102,-2.60902 3.29102,-3.29102c-0.163,-1.502 -1.4218,-2.67578 -2.9668,-2.67578zM18,13c-2.8,0 -5,2.2 -5,5c0,2.8 2.2,5 5,5c1,0 2.00078,-0.30078 2.80078,-0.80078l1.79883,1.80078l1.40039,-1.40039l-1.80078,-1.79883c0.5,-0.8 0.80078,-1.80078 0.80078,-2.80078c0,-2.8 -2.2,-5 -5,-5zM18,15c1.7,0 3,1.3 3,3c0,1.7 -1.3,3 -3,3c-1.7,0 -3,-1.3 -3,-3c0,-1.7 1.3,-3 3,-3z"></path></g></g></svg>