<svg xmlns="http://www.w3.org/2000/svg" xmlns:xlink="http://www.w3.org/1999/xlink" viewBox="0,0,256,256" width="24px" height="24px"><g fill="#ffffff" fill-rule="nonzero" stroke="none" stroke-width="1" stroke-linecap="butt" stroke-linejoin="miter" stroke-miterlimit="10" stroke-dasharray="" stroke-dashoffset="0" font-family="none" font-weight="none" font-size="none" text-anchor="none" style="mix-blend-mode: normal"><g transform="scale(10.66667,10.66667)"><path d="M12,2c0,0 -6.02734,1.5 -8,1.5v9.5c0,1.05469 0.24609,2.00781 0.65625,2.875l15.34375,-10.84375v-1.53125c-1.97266,0 -8,-1.5 -8,-1.5zM8,6l1,1.5l-1,1.5l-1,-1.5zM20,7.46875l-14.25,10.09375c2.35156,2.9375 6.25,4.4375 6.25,4.4375c0,0 8,-2.98828 8,-9zM15,14l1,1.5l-1,1.5l-1,-1.5z"></path></g></g></svg>