<svg xmlns="http://www.w3.org/2000/svg" xmlns:xlink="http://www.w3.org/1999/xlink" viewBox="0,0,256,256" width="24px" height="24px"><g fill="#ffffff" fill-rule="nonzero" stroke="none" stroke-width="1" stroke-linecap="butt" stroke-linejoin="miter" stroke-miterlimit="10" stroke-dasharray="" stroke-dashoffset="0" font-family="none" font-weight="none" font-size="none" text-anchor="none" style="mix-blend-mode: normal"><g transform="scale(10.66667,10.66667)"><path d="M11.99219,1.99414c-2.76548,0 -5.20549,1.59109 -6.64063,4h-0.34961c-1.103,0 -2,-0.897 -2,-2h-2c0,2.02843 1.52127,3.69188 3.48047,3.94922c-0.30551,0.95157 -0.48047,1.97242 -0.48047,3.04102v4.00977c0,3.859 2.79166,7 6.22266,7h3.55469c3.431,0 6.22266,-3.141 6.22266,-7v-4.00977c-0.00022,-1.06868 -0.17455,-2.08928 -0.48047,-3.04102c1.9586,-0.25788 3.48047,-1.92122 3.48047,-3.94922h-2c0,1.103 -0.897,2 -2,2h-0.34961c-1.43665,-2.40895 -3.88338,-4 -6.66016,-4zM7,8.99414l4,1c0,1.105 -0.895,2 -2,2c-2,0 -2.109,-2.753 -2,-3zM17,8.99414c0.109,0.247 0,3 -2,3c-1.105,0 -2,-0.895 -2,-2zM7.00195,13.99414h2l1,2l1,-2h2l1,2l1,-2h2c0,2.209 -2,4 -5,4c-3,0 -5,-1.791 -5,-4z"></path></g></g></svg>