<svg xmlns="http://www.w3.org/2000/svg" xmlns:xlink="http://www.w3.org/1999/xlink" viewBox="0,0,256,256" width="24px" height="24px"><g fill="#ffffff" fill-rule="nonzero" stroke="none" stroke-width="1" stroke-linecap="butt" stroke-linejoin="miter" stroke-miterlimit="10" stroke-dasharray="" stroke-dashoffset="0" font-family="none" font-weight="none" font-size="none" text-anchor="none" style="mix-blend-mode: normal"><g transform="scale(10.66667,10.66667)"><path d="M11,3c-1.5,0 -2.98828,0.29297 -3.6875,1.09375c-0.80078,0.19922 -2.39844,0.50781 -4.5,0.90625l-0.8125,0.1875v0.8125c0,1.30078 0.90625,2.48828 2.40625,3.1875c-0.60156,0.5 -1.40625,0.8125 -2.40625,0.8125v2c1.89844,0 3.60547,-0.89453 4.40625,-2.09375c0.5,0 0.99219,0.09375 1.59375,0.09375v-2c-1.69922,0 -3.08594,-0.58594 -3.6875,-1.1875c2.39844,-0.5 3.875,-0.8125 3.875,-0.8125l0.8125,-0.1875v-0.5c0.30078,-0.10156 1,-0.3125 2,-0.3125c1.80078,0 3.80078,1.5 4,2v0.6875l4.59375,1.8125c-0.5,0.80078 -1.08203,1.5 -1.28125,1.5c-0.5,-0.19922 -1,-0.30078 -1.5,-0.5c-2.5,-0.80078 -4.52344,-1.48828 -5.625,-0.1875c-0.69922,0.89844 -0.69531,1.67969 -0.59375,2.28125c0.30078,1 1.19531,2 3.09375,3l-3.875,-0.59375l-0.3125,0.09375c-0.80078,0.39844 -1.30469,1.59375 -1.40625,2.59375c-0.10156,1.30078 0.41406,2.42578 1.3125,3.125l1.1875,-1.625c-0.30078,-0.19922 -0.5,-0.60156 -0.5,-1c0,-0.5 0.11719,-0.89453 0.21875,-1.09375l5.6875,0.90625h0.1875c1.10156,-0.30078 1.61719,-1.21094 1.71875,-1.8125l0.1875,-0.78125l-0.78125,-0.3125c-0.19922,-0.10156 -0.51953,-0.17969 -0.71875,-0.28125v-1.125l-0.78125,0.8125c-0.10156,0 -0.11719,-0.09375 -0.21875,-0.09375v-1l-0.59375,0.59375c-2,-1 -2.39844,-1.60547 -2.5,-1.90625c0,-0.10156 -0.00781,-0.20703 0.09375,-0.40625c0.30078,-0.10156 1.3125,0.10547 2.3125,0.40625v1.3125l1,-1v1.28125l1,-1v1.3125l1,-1c2,0.30078 3.50781,-2.69531 3.90625,-3.59375l0.375,-1l-5.375,-2.09375c-0.69922,-1.69922 -3.61328,-3.3125 -5.8125,-3.3125zM12,7l2,1v-1zM4,12c0,0.19922 0,1 -2,1v2c3.69922,0 4,-2.30078 4,-3zM4,15c0,0.19922 0,1 -2,1v2c3.69922,0 4,-2.30078 4,-3z"></path></g></g></svg>